<svg width="16" height="17" viewBox="0 0 16 17" fill="none" xmlns="http://www.w3.org/2000/svg">
<path d="M6.72724 1.48706C5.5945 1.48706 4.4872 1.82296 3.54536 2.45227C2.60352 3.08159 1.86944 3.97606 1.43596 5.02258C1.00248 6.0691 0.889063 7.22065 1.11005 8.33163C1.33104 9.44261 1.8765 10.4631 2.67747 11.2641C3.47844 12.065 4.49894 12.6105 5.60991 12.8315C6.72089 13.0525 7.87245 12.9391 8.91896 12.5056C9.96548 12.0721 10.86 11.338 11.4893 10.3962C12.1186 9.45435 12.4545 8.34704 12.4545 7.2143C12.4544 5.69537 11.851 4.23868 10.7769 3.16464C9.70286 2.09059 8.24617 1.48716 6.72724 1.48706Z" stroke="#B5C7CE" stroke-width="1.5" stroke-miterlimit="10"/>
<path d="M11.0002 11.4872L15.0001 15.4871" stroke="#B5C7CE" stroke-width="1.5" stroke-miterlimit="10" stroke-linecap="round"/>
</svg>
